<?xml version='1.0' encoding='iso-8859-1'?>
<!DOCTYPE svg PUBLIC '-//W3C//DTD SVG 1.1//EN' 'http://www.w3.org/Graphics/SVG/1.1/DTD/svg11.dtd'>
<svg version="1.1" xmlns="http://www.w3.org/2000/svg" viewBox="0 0 297 297" xmlns:xlink="http://www.w3.org/1999/xlink" enable-background="new 0 0 297 297">
  <g xmlns="http://www.w3.org/2000/svg">
    
    
    <path style="fill:#ffffff;" d="m184.247,137.919h-71.493c-3.949,0-7.149,3.201-7.149,7.149v144.782c0,3.949 3.201,7.149 7.149,7.149h71.493c3.949,0 7.149-3.201 7.149-7.149v-144.782c-2.84217e-14-3.948-3.201-7.149-7.149-7.149z"/>
    
    
    <path style="fill:#ffffff;" d="m283.316,190.215h-71.493c-3.949,0-7.149,3.201-7.149,7.149v92.487c0,3.949 3.201,7.149 7.149,7.149h71.493c3.949,0 7.149-3.201 7.149-7.149v-92.487c0.001-3.949-3.2-7.149-7.149-7.149z"/>
    
    
    <path style="fill:#ffffff;" d="m85.177,239.031h-71.493c-3.949,0-7.149,3.201-7.149,7.149v43.67c0,3.949 3.201,7.149 7.149,7.149h71.493c3.949,0 7.149-3.201 7.149-7.149v-43.67c0.001-3.948-3.2-7.149-7.149-7.149z"/>
  </g>
</svg>
