<?xml version="1.0" encoding="iso-8859-1"?>
<!-- Generator: Adobe Illustrator 18.0.0, SVG Export Plug-In . SVG Version: 6.00 Build 0)  -->
<!DOCTYPE svg PUBLIC "-//W3C//DTD SVG 1.1//EN" "http://www.w3.org/Graphics/SVG/1.1/DTD/svg11.dtd">
<svg version="1.1" id="Capa_1" xmlns="http://www.w3.org/2000/svg" xmlns:xlink="http://www.w3.org/1999/xlink" x="0px" y="0px"
	 viewBox="0 0 490.314 490.314" style="enable-background:new 0 0 490.314 490.314;" xml:space="preserve">
<path style="fill:#ffffff;" d="M479.344,88.321c-10.499-15.949-27.332-26.626-46.246-29.314c-18.89-2.692-38.041,2.864-52.58,15.254L205.363,223.543
	l0.053,0.076c-28.822,4.384-67.939,22.046-107.969,48.396C30.375,316.165-13.639,367.7,3.847,394.264
	c22.534,34.235,115.9,57.675,182.971,13.525c45.766-30.124,67.43-83.912,69.439-125.944l196.927-97.191
	c17.13-8.455,29.803-23.849,34.799-42.264C492.993,123.955,489.843,104.271,479.344,88.321z M137.142,335.399
	c-47.594,31.329-92.611,46.926-100.56,34.85c-7.949-12.075,24.178-47.257,71.771-78.586c47.594-31.329,92.61-46.925,100.559-34.85
	C216.861,268.889,184.737,304.07,137.142,335.399z"/>
<g>
</g>
<g>
</g>
<g>
</g>
<g>
</g>
<g>
</g>
<g>
</g>
<g>
</g>
<g>
</g>
<g>
</g>
<g>
</g>
<g>
</g>
<g>
</g>
<g>
</g>
<g>
</g>
<g>
</g>
</svg>
