<svg id="Capa_1" enable-background="new 0 0 512.048 512.048" height="512" viewBox="0 0 512.048 512.048" width="512" xmlns="http://www.w3.org/2000/svg"><g>
<path fill="#fff" d="m.024 173.024h60v30h391v-30h61v-30h-512z"/>
<path fill="#fff" d="m209.164 55.57-70.915 57.455h235.551l-70.916-57.455c-27.597-22.046-66.123-22.076-93.72 0z"/>
<path fill="#fff" d="m30.024 443.024h121v30h-121z"/>
<path fill="#fff" d="m361.024 443.024h121v30h-121z"/>
<path fill="#fff" d="m489.099 264.797c-4.175-18.706-21.464-31.772-40.609-31.772h-385.932c-19.146 0-35.435 13.066-39.595 31.758l-21.972 98.891c-5.667 25.242 13.698 49.351 39.58 49.351h430.906c25.873 0 45.249-24.099 39.58-49.351zm-368.075 103.227h-30v-30h30zm0-60h-30v-30h30zm60 60h-30v-30h30zm0-60h-30v-30h30zm120 60h-90v-90h90zm60 0h-30v-30h30zm0-60h-30v-30h30zm60 60h-30v-30h30zm0-60h-30v-30h30z"/>
<path fill="#fff" d="m241.024 308.024h30v30h-30z"/></g></svg>