<svg id="Capa_1" enable-background="new 0 0 511.998 511.998" height="512" viewBox="0 0 511.998 511.998" width="512" xmlns="http://www.w3.org/2000/svg" xmlns:xlink="http://www.w3.org/1999/xlink"><linearGradient id="SVGID_1_" gradientUnits="userSpaceOnUse" x1="293.999" x2="293.999" y1="331.553" y2="121.553"><stop offset="0" stop-color="#fff"/><stop offset=".9973" stop-color="#fff"/></linearGradient><linearGradient id="SVGID_2_" gradientUnits="userSpaceOnUse" x1="221.584" x2="221.584" y1="511.446" y2=".553"><stop offset="0" stop-color="#fff"/><stop offset="1" stop-color="#fff"/></linearGradient><g><g><g><path d="m76 211.553c24.814 0 45 20.186 45 45v60c0 8.291 6.709 15 15 15h60c8.291 0 15-6.709 15-15v-60c0-24.814 20.186-45 45-45v-90h-180zm435.341 40.62c-2.402-7.925-10.796-12.437-18.721-9.961l-28.89 8.814 42.367-42.359c5.859-5.859 5.859-15.352 0-21.211s-15.352-5.859-21.211 0l-42.363 42.356 8.818-28.879c2.432-7.925-2.036-16.304-9.961-18.721-7.998-2.476-16.304 2.051-18.721 9.961l-26.367 86.353 18.721 18.721 86.367-26.353c7.925-2.418 12.378-10.797 9.961-18.721z" fill="url(#SVGID_1_)"/></g></g><g><g><path d="m256 211.553c41.353 0 75-33.647 75-75s-33.647-75-75-75c-5.435 0-10.84.615-16.157 1.831-6.24-35.098-36.973-62.831-73.843-62.831s-67.603 27.733-73.843 62.831c-5.317-1.216-10.722-1.831-16.157-1.831-41.353 0-76 33.647-76 75s34.647 75 76 75c36.87 0 67.603-26.733 73.843-61.831 10.635 2.432 21.68 2.432 32.314 0 6.24 35.097 36.973 61.831 73.843 61.831zm165.238 60.747c-29.238-29.238-76.816-29.238-106.055 0-1.802 1.802-167.168 193.477-127.28 233.35 35.62 35.62 209.657-103.602 233.335-127.28 29.239-29.254 29.239-76.832 0-106.07z" fill="url(#SVGID_2_)"/></g></g></g></svg>